<svg xmlns="http://www.w3.org/2000/svg" version="1.1" xmlns:xlink="http://www.w3.org/1999/xlink" xmlns:svgjs="http://svgjs.dev/svgjs" width="1500" height="1500" viewBox="0 0 1500 1500"><rect width="1500" height="1500" fill="#ffffff"></rect><g transform="matrix(0.6666666666666666,0,0,0.6666666666666666,250.86867672775588,660.5619979148747)"><svg viewBox="0 0 397 71" data-background-color="#ffffff" preserveAspectRatio="xMidYMid meet" height="268" width="1500" xmlns="http://www.w3.org/2000/svg" xmlns:xlink="http://www.w3.org/1999/xlink"><g id="tight-bounds" transform="matrix(1,0,0,1,1.4148430018653357,0.04159411218597597)"><svg viewBox="0 0 395.52 59.449679937478926" height="59.449679937478926" width="395.52"><g><svg viewBox="0 0 536.5297348404449 80.64452117011753" height="59.449679937478926" width="395.52"><g><rect width="4.874343719928329" height="80.64452117011753" x="123.37532902646342" y="0" fill="#000000" opacity="1" stroke-width="0" stroke="transparent" fill-opacity="1" class="rect-qz-0" data-fill-palette-color="primary" rx="1%" id="qz-0" data-palette-color="#883d1a"></rect></g><g transform="matrix(1,0,0,1,141.00973484044496,0.20060826161720513)"><svg viewBox="0 0 395.52 80.24330464688312" height="80.24330464688312" width="395.52"><g id="textblocktransform"><svg viewBox="0 0 395.52 80.24330464688312" height="80.24330464688312" width="395.52" id="textblock"><g><svg viewBox="0 0 395.52 54.05065357788685" height="54.05065357788685" width="395.52"><g transform="matrix(1,0,0,1,0,0)"><svg width="395.52" viewBox="4.91 -38.26 283.48999999999995 38.75" height="54.05065357788685" data-palette-color="#883d1a"><path d="M33.4-18.19L33.4-18.19Q33.4-9.35 28.6-4.68 23.8 0 14.79 0L14.79 0 4.91 0 4.91-35.69 15.84-35.69Q24.17-35.69 28.78-31.08 33.4-26.46 33.4-18.19ZM29-18.04L29-18.04Q29-25.02 25.5-28.56 22-32.1 15.09-32.1L15.09-32.1 9.06-32.1 9.06-3.59 14.11-3.59Q21.53-3.59 25.27-7.24 29-10.89 29-18.04ZM52.95-27.25L52.95-27.25Q54.73-27.25 56.15-26.95L56.15-26.95 55.59-23.19Q53.93-23.56 52.66-23.56L52.66-23.56Q49.41-23.56 47.1-20.92 44.8-18.29 44.8-14.36L44.8-14.36 44.8 0 40.74 0 40.74-26.76 44.09-26.76 44.55-21.8 44.75-21.8Q46.24-24.41 48.34-25.83 50.44-27.25 52.95-27.25ZM72.46 0.49L72.46 0.49Q66.52 0.49 63.09-3.13 59.66-6.74 59.66-13.16L59.66-13.16Q59.66-19.63 62.85-23.44 66.04-27.25 71.41-27.25L71.41-27.25Q76.44-27.25 79.37-23.94 82.29-20.63 82.29-15.21L82.29-15.21 82.29-12.65 63.86-12.65Q63.98-7.93 66.24-5.49 68.5-3.05 72.6-3.05L72.6-3.05Q76.92-3.05 81.15-4.86L81.15-4.86 81.15-1.25Q79-0.32 77.08 0.09 75.17 0.49 72.46 0.49ZM71.36-23.85L71.36-23.85Q68.13-23.85 66.22-21.75 64.3-19.65 63.96-15.94L63.96-15.94 77.95-15.94Q77.95-19.78 76.24-21.81 74.53-23.85 71.36-23.85ZM127.36 0L123.31 0 123.31-17.41Q123.31-20.61 121.94-22.2 120.57-23.8 117.69-23.8L117.69-23.8Q113.91-23.8 112.1-21.63 110.3-19.46 110.3-14.94L110.3-14.94 110.3 0 106.24 0 106.24-17.41Q106.24-20.61 104.88-22.2 103.51-23.8 100.6-23.8L100.6-23.8Q96.79-23.8 95.02-21.52 93.25-19.24 93.25-14.04L93.25-14.04 93.25 0 89.2 0 89.2-26.76 92.5-26.76 93.16-23.1 93.35-23.1Q94.5-25.05 96.59-26.15 98.67-27.25 101.26-27.25L101.26-27.25Q107.54-27.25 109.47-22.71L109.47-22.71 109.66-22.71Q110.86-24.8 113.13-26.03 115.4-27.25 118.3-27.25L118.3-27.25Q122.84-27.25 125.1-24.91 127.36-22.58 127.36-17.46L127.36-17.46 127.36 0ZM147.91-14.84L140.47-14.84 140.47 0 136.32 0 136.32-35.69 146.11-35.69Q152.68-35.69 155.81-33.18 158.95-30.66 158.95-25.61L158.95-25.61Q158.95-18.53 151.77-16.04L151.77-16.04 161.46 0 156.56 0 147.91-14.84ZM140.47-32.06L140.47-18.41 146.16-18.41Q150.55-18.41 152.6-20.15 154.65-21.9 154.65-25.39L154.65-25.39Q154.65-28.93 152.57-30.49 150.48-32.06 145.86-32.06L145.86-32.06 140.47-32.06ZM177.92 0.49L177.92 0.49Q171.98 0.49 168.55-3.13 165.12-6.74 165.12-13.16L165.12-13.16Q165.12-19.63 168.31-23.44 171.5-27.25 176.87-27.25L176.87-27.25Q181.9-27.25 184.83-23.94 187.76-20.63 187.76-15.21L187.76-15.21 187.76-12.65 169.32-12.65Q169.45-7.93 171.7-5.49 173.96-3.05 178.06-3.05L178.06-3.05Q182.38-3.05 186.61-4.86L186.61-4.86 186.61-1.25Q184.46-0.32 182.54 0.09 180.63 0.49 177.92 0.49ZM176.82-23.85L176.82-23.85Q173.6-23.85 171.68-21.75 169.76-19.65 169.42-15.94L169.42-15.94 183.41-15.94Q183.41-19.78 181.7-21.81 179.99-23.85 176.82-23.85ZM206.72-26.76L206.72-23.61 199.91-23.61 199.91 0 195.86 0 195.86-23.61 191.07-23.61 191.07-25.44 195.86-26.9 195.86-28.39Q195.86-38.26 204.48-38.26L204.48-38.26Q206.6-38.26 209.46-37.4L209.46-37.4 208.41-34.16Q206.06-34.91 204.4-34.91L204.4-34.91Q202.11-34.91 201.01-33.39 199.91-31.86 199.91-28.49L199.91-28.49 199.91-26.76 206.72-26.76ZM215.66-37.99L215.66 0 211.6 0 211.6-37.99 215.66-37.99ZM235.55 0.49L235.55 0.49Q229.62 0.49 226.19-3.13 222.76-6.74 222.76-13.16L222.76-13.16Q222.76-19.63 225.94-23.44 229.13-27.25 234.5-27.25L234.5-27.25Q239.53-27.25 242.46-23.94 245.39-20.63 245.39-15.21L245.39-15.21 245.39-12.65 226.96-12.65Q227.08-7.93 229.34-5.49 231.6-3.05 235.7-3.05L235.7-3.05Q240.02-3.05 244.24-4.86L244.24-4.86 244.24-1.25Q242.09-0.32 240.18 0.09 238.26 0.49 235.55 0.49ZM234.45-23.85L234.45-23.85Q231.23-23.85 229.31-21.75 227.4-19.65 227.06-15.94L227.06-15.94 241.04-15.94Q241.04-19.78 239.34-21.81 237.63-23.85 234.45-23.85ZM262.99 0.49L262.99 0.49Q257.18 0.49 253.99-3.09 250.81-6.67 250.81-13.21L250.81-13.21Q250.81-19.92 254.04-23.58 257.28-27.25 263.26-27.25L263.26-27.25Q265.19-27.25 267.12-26.83 269.04-26.42 270.14-25.85L270.14-25.85 268.9-22.41Q267.56-22.95 265.97-23.3 264.38-23.66 263.16-23.66L263.16-23.66Q255.01-23.66 255.01-13.26L255.01-13.26Q255.01-8.33 257-5.69 258.99-3.05 262.89-3.05L262.89-3.05Q266.24-3.05 269.75-4.49L269.75-4.49 269.75-0.9Q267.07 0.49 262.99 0.49ZM284.74-2.86L284.74-2.86Q285.81-2.86 286.82-3.02 287.82-3.17 288.4-3.34L288.4-3.34 288.4-0.24Q287.74 0.07 286.46 0.28 285.18 0.49 284.15 0.49L284.15 0.49Q276.39 0.49 276.39-7.69L276.39-7.69 276.39-23.61 272.56-23.61 272.56-25.56 276.39-27.25 278.1-32.96 280.44-32.96 280.44-26.76 288.21-26.76 288.21-23.61 280.44-23.61 280.44-7.86Q280.44-5.44 281.59-4.15 282.74-2.86 284.74-2.86Z" opacity="1" transform="matrix(1,0,0,1,0,0)" fill="#000000" class="wordmark-text-0" data-fill-palette-color="primary" id="text-0"></path></svg></g></svg></g><g transform="matrix(1,0,0,1,0,66.81071567194006)"><svg viewBox="0 0 232.20979199999996 13.432588974943052" height="13.432588974943052" width="232.20979199999996"><g transform="matrix(1,0,0,1,0,0)"><svg width="232.20979199999996" viewBox="1.51 -36.04 814.48 47.12" height="13.432588974943052" data-palette-color="#4d331f"><path d="M18.9-20.7L18.9-20.7Q19.34-20.26 20.51-19.17 21.68-18.07 23.29-16.58 24.9-15.09 26.81-13.31 28.71-11.52 30.66-9.72 32.62-7.91 34.47-6.23 36.33-4.54 37.84-3.22 39.36-1.9 40.38-1.1 41.41-0.29 41.65-0.24L41.65-0.24 31.79 0Q31.4-0.54 30.86-1.05 30.32-1.56 29.83-2.1L29.83-2.1Q25.93-6.01 21.97-9.79 18.02-13.57 13.87-17.19L13.87-17.19 10.16-14.55Q10.16-12.74 10.13-10.94 10.11-9.13 10.11-7.32L10.11-7.32Q10.11-6.88 10.11-5.81 10.11-4.74 10.16-3.52 10.21-2.29 10.38-1.29 10.55-0.29 10.84 0L10.84 0 2.29 0Q2.59-0.29 2.78-1.88 2.98-3.47 3.1-5.74 3.22-8.01 3.25-10.62 3.27-13.23 3.27-15.6 3.27-17.97 3.25-19.82 3.22-21.68 3.22-22.41L3.22-22.41Q3.22-22.85 3.25-23.97 3.27-25.1 3.25-26.56 3.22-28.03 3.15-29.64 3.08-31.25 2.88-32.62 2.69-33.98 2.34-34.91 2-35.84 1.51-35.99L1.51-35.99 12.45-35.99Q11.87-35.99 11.47-35.03 11.08-34.08 10.84-32.62 10.6-31.15 10.45-29.42 10.3-27.69 10.25-26.07 10.21-24.46 10.21-23.22 10.21-21.97 10.21-21.53L10.21-21.53Q10.89-21.92 12.55-23.07 14.21-24.22 16.31-25.71 18.41-27.2 20.7-28.88 23-30.57 24.93-32.03 26.86-33.5 28.17-34.59 29.49-35.69 29.69-36.04L29.69-36.04 41.21-35.99Q40.19-35.45 38.89-34.52 37.6-33.59 36.62-32.91L36.62-32.91Q32.13-29.88 27.73-26.86 23.34-23.83 18.9-20.7ZM70.6-15.04L70.6-15.04Q70.6-11.67 70.29-8.35 69.97-5.03 69.97-1.66L69.97-1.66Q69.97-0.54 70.11 0.54L70.11 0.54 61.57 0.54Q62.06-0.24 62.3-2.08 62.55-3.91 62.67-5.98 62.79-8.06 62.81-9.99 62.84-11.91 62.84-12.94L62.84-12.94Q62.84-15.92 61.37-17.6 59.91-19.29 56.83-19.29L56.83-19.29Q55.81-19.29 54.86-18.92 53.9-18.55 53.05-17.97 52.19-17.38 51.44-16.65 50.68-15.92 50.1-15.19L50.1-15.19Q49.95-10.94 49.95-6.69L49.95-6.69Q49.95-6.35 49.95-5.35 49.95-4.35 50-3.22 50.05-2.1 50.14-1.15 50.24-0.2 50.49 0L50.49 0 41.84 0Q42.04-0.29 42.23-1.44 42.43-2.59 42.58-4.17 42.72-5.76 42.82-7.57 42.92-9.38 42.99-11.04 43.06-12.7 43.09-13.96 43.11-15.23 43.11-15.72L43.11-15.72Q43.11-16.11 43.09-17.36 43.06-18.6 42.97-19.95 42.87-21.29 42.65-22.41 42.43-23.54 41.99-23.68L41.99-23.68 50.53-23.63 50.39-21.29Q52.19-22.61 54.42-23.46 56.64-24.32 58.93-24.32L58.93-24.32Q61.18-24.32 63.3-23.85 65.43-23.39 67.04-22.29 68.65-21.19 69.63-19.43 70.6-17.68 70.6-15.04ZM91.35-23.54L91.35-23.54Q94.04-23.54 97.02-22.78 100-22.02 102.44-20.48 104.88-18.95 106.49-16.6 108.1-14.26 108.1-11.08L108.1-11.08Q108.1-8.98 107.32-7.3 106.54-5.62 105.24-4.32 103.95-3.03 102.24-2.08 100.53-1.12 98.65-0.51 96.77 0.1 94.82 0.39 92.87 0.68 91.16 0.68L91.16 0.68Q88.37 0.68 85.44 0.05 82.51-0.59 80.1-2 77.68-3.42 76.14-5.69 74.6-7.96 74.6-11.28L74.6-11.28Q74.6-14.55 76.19-16.87 77.78-19.19 80.22-20.68 82.66-22.17 85.62-22.85 88.57-23.54 91.35-23.54ZM81.93-11.33L81.93-11.33Q81.93-9.42 82.78-8.11 83.64-6.79 84.98-5.96 86.32-5.13 87.98-4.76 89.64-4.39 91.25-4.39L91.25-4.39Q92.77-4.39 94.43-4.79 96.09-5.18 97.5-6.01 98.92-6.84 99.85-8.13 100.78-9.42 100.78-11.23L100.78-11.23Q100.78-13.04 99.9-14.38 99.02-15.72 97.65-16.63 96.28-17.53 94.6-17.97 92.91-18.41 91.35-18.41L91.35-18.41Q89.74-18.41 88.08-17.99 86.42-17.58 85.05-16.72 83.69-15.87 82.81-14.53 81.93-13.18 81.93-11.33ZM149.94-23.83Q149.65-23.58 149.04-22.51 148.43-21.44 147.6-19.82 146.77-18.21 145.82-16.19 144.87-14.16 143.89-12.06 142.91-9.96 142.01-7.91 141.11-5.86 140.42-4.17 139.74-2.49 139.32-1.29 138.91-0.1 138.91 0.24L138.91 0.24 138.91 0.39 132.66 0.39Q132.76 0.24 132.56-0.46 132.37-1.17 132-2.12 131.63-3.08 131.17-4.17 130.71-5.27 130.27-6.27 129.83-7.28 129.46-8.03 129.09-8.79 128.95-9.08L128.95-9.08Q128.7-8.54 128.07-7.15 127.43-5.76 126.77-4.25 126.12-2.73 125.6-1.44 125.09-0.15 125.09 0.29L125.09 0.29 125.09 0.39 118.84 0.39Q118.89 0.34 118.89 0.29L118.89 0.29Q118.89-0.15 118.13-1.98 117.38-3.81 116.2-6.35 115.03-8.89 113.59-11.77 112.15-14.65 110.86-17.19 109.56-19.73 108.54-21.56 107.51-23.39 107.12-23.83L107.12-23.83 115.32-23.83Q116.89-19.87 118.33-16.02 119.77-12.16 121.72-8.4L121.72-8.4Q122.7-10.4 123.65-12.35 124.6-14.31 125.58-16.31L125.58-16.31Q125.29-16.94 124.77-18.02 124.26-19.09 123.67-20.24 123.09-21.39 122.53-22.36 121.97-23.34 121.57-23.83L121.57-23.83 129.78-23.83Q130.27-22.61 130.63-21.39 131-20.17 131.39-18.95L131.39-18.95Q132.27-16.26 133.27-13.65 134.27-11.04 135.54-8.5L135.54-8.5Q136.81-11.33 138.05-14.14 139.3-16.94 140.57-19.82L140.57-19.82Q141.01-20.8 141.45-21.78 141.89-22.75 142.13-23.83L142.13-23.83 149.94-23.83ZM195.45-24.51Q195.25-24.22 195.15-23.14 195.06-22.07 195.01-20.83 194.96-19.58 194.96-18.43 194.96-17.29 194.96-16.85L194.96-16.85Q194.96-12.84 195.01-8.86 195.06-4.88 195.06-0.93L195.06-0.93Q195.06 2.1 193.71 4.37 192.37 6.64 190.22 8.13 188.07 9.62 185.39 10.35 182.7 11.08 180.02 11.08L180.02 11.08Q177.04 11.08 174.08 11.04 171.13 10.99 168.2 10.94L168.2 10.94 168.69 5.27Q169.42 5.57 170.76 5.83 172.11 6.1 173.57 6.27 175.04 6.45 176.4 6.54 177.77 6.64 178.65 6.64L178.65 6.64Q180.94 6.64 182.75 6.25 184.56 5.86 185.83 4.91 187.1 3.96 187.78 2.29 188.46 0.63 188.46-1.86L188.46-1.86Q188.46-2.29 188.44-2.76 188.42-3.22 188.37-3.66L188.37-3.66Q186.41-2.25 184.07-1.56 181.73-0.88 179.33-0.88L179.33-0.88Q175.82-0.88 173.5-1.98 171.18-3.08 169.81-5 168.44-6.93 167.88-9.59 167.32-12.26 167.32-15.38L167.32-15.38Q167.32-16.89 167.42-18.41 167.52-19.92 167.52-21.44L167.52-21.44Q167.52-22.12 167.44-22.92 167.37-23.73 166.93-24.27L166.93-24.27 175.82-24.22Q175.43-23.58 175.11-22.36 174.79-21.14 174.6-19.78 174.4-18.41 174.3-17.11 174.21-15.82 174.21-15.04L174.21-15.04Q174.21-13.09 174.47-11.43 174.74-9.77 175.52-8.52 176.31-7.28 177.65-6.57 178.99-5.86 181.14-5.86L181.14-5.86Q182.02-5.86 183.14-6.01 184.26-6.15 185.29-6.57 186.32-6.98 187.1-7.67 187.88-8.35 188.02-9.42L188.02-9.42Q188.17-10.3 188.17-11.21 188.17-12.11 188.17-12.94L188.17-12.94Q188.17-13.67 188.1-15.41 188.02-17.14 187.88-18.97 187.73-20.8 187.46-22.39 187.19-23.97 186.8-24.41L186.8-24.41 195.45-24.51ZM215.95-23.54L215.95-23.54Q218.64-23.54 221.62-22.78 224.59-22.02 227.04-20.48 229.48-18.95 231.09-16.6 232.7-14.26 232.7-11.08L232.7-11.08Q232.7-8.98 231.92-7.3 231.14-5.62 229.84-4.32 228.55-3.03 226.84-2.08 225.13-1.12 223.25-0.51 221.37 0.1 219.42 0.39 217.47 0.68 215.76 0.68L215.76 0.68Q212.97 0.68 210.04 0.05 207.11-0.59 204.7-2 202.28-3.42 200.74-5.69 199.2-7.96 199.2-11.28L199.2-11.28Q199.2-14.55 200.79-16.87 202.38-19.19 204.82-20.68 207.26-22.17 210.21-22.85 213.17-23.54 215.95-23.54ZM206.53-11.33L206.53-11.33Q206.53-9.42 207.38-8.11 208.24-6.79 209.58-5.96 210.92-5.13 212.58-4.76 214.24-4.39 215.85-4.39L215.85-4.39Q217.37-4.39 219.03-4.79 220.69-5.18 222.1-6.01 223.52-6.84 224.45-8.13 225.38-9.42 225.38-11.23L225.38-11.23Q225.38-13.04 224.5-14.38 223.62-15.72 222.25-16.63 220.88-17.53 219.2-17.97 217.51-18.41 215.95-18.41L215.95-18.41Q214.34-18.41 212.68-17.99 211.02-17.58 209.65-16.72 208.29-15.87 207.41-14.53 206.53-13.18 206.53-11.33ZM265.71-23.78Q265.51-23.44 265.34-22.31 265.17-21.19 265.02-19.65 264.88-18.12 264.78-16.31 264.68-14.5 264.61-12.87 264.53-11.23 264.51-9.94 264.48-8.64 264.48-8.06L264.48-8.06Q264.48-7.57 264.48-6.32 264.48-5.08 264.61-3.76 264.73-2.44 264.95-1.37 265.17-0.29 265.61-0.1L265.61-0.1 257.01-0.15 257.21-2.49Q255.35-1.17 253.16-0.32 250.96 0.54 248.66 0.54L248.66 0.54Q246.37 0.54 244.25-0.02 242.12-0.59 240.51-1.76 238.9-2.93 237.92-4.76 236.95-6.59 236.95-9.18L236.95-9.18Q236.95-12.45 237.26-15.67 237.58-18.9 237.58-22.17L237.58-22.17Q237.58-22.71 237.56-23.24 237.53-23.78 237.43-24.32L237.43-24.32 245.69-24.32Q245.2-23.49 244.95-21.68 244.71-19.87 244.59-17.82 244.46-15.77 244.44-13.84 244.42-11.91 244.42-10.84L244.42-10.84Q244.42-8.98 244.71-7.76 245-6.54 245.71-5.81 246.42-5.08 247.64-4.79 248.86-4.49 250.71-4.49L250.71-4.49Q251.74-4.49 252.69-4.86 253.64-5.22 254.52-5.81 255.4-6.4 256.13-7.13 256.87-7.86 257.45-8.59L257.45-8.59Q257.55-10.74 257.6-12.84 257.65-14.94 257.65-17.09L257.65-17.09Q257.65-17.53 257.65-18.53 257.65-19.53 257.6-20.61 257.55-21.68 257.43-22.58 257.31-23.49 257.11-23.78L257.11-23.78 265.71-23.78ZM277.42-18.55L277.42-18.55Q278.59-19.53 280.13-20.41 281.67-21.29 283.35-21.95 285.04-22.61 286.77-23 288.51-23.39 290.02-23.39L290.02-23.39 290.02-19.19Q288.46-19.19 286.55-18.51 284.65-17.82 282.82-16.75 280.99-15.67 279.52-14.31 278.06-12.94 277.37-11.52L277.37-11.52Q277.37-11.18 277.4-10.25 277.42-9.33 277.45-8.11 277.47-6.88 277.52-5.54 277.57-4.2 277.67-3.03 277.76-1.86 277.86-1.03 277.96-0.2 278.11 0L278.11 0 270.19 0Q270.39-0.1 270.54-1.05 270.68-2 270.76-3.37 270.83-4.74 270.9-6.32 270.98-7.91 271-9.38 271.02-10.84 271.02-11.91 271.02-12.99 271.02-13.33L271.02-13.33Q271.02-13.77 271.02-15.19 271.02-16.6 270.98-18.16 270.93-19.73 270.83-21.07 270.73-22.41 270.54-22.71L270.54-22.71 277.76-22.71Q277.67-22.41 277.62-21.85 277.57-21.29 277.52-20.65 277.47-20.02 277.45-19.43 277.42-18.85 277.42-18.55ZM328.83-14.4Q329.13-15.23 329.32-16.14 329.52-17.04 329.52-17.97L329.52-17.97Q329.52-20.02 328.42-21.02 327.32-22.02 325.27-22.02L325.27-22.02Q324.1-22.02 322.51-21.75 320.92-21.48 319.51-20.85 318.09-20.21 317.09-19.19 316.09-18.16 316.09-16.65L316.09-16.65Q316.09-15.53 317.19-14.77 318.29-14.01 319.75-13.55 321.22-13.09 322.7-12.84 324.19-12.6 324.98-12.45L324.98-12.45Q326.2-12.21 328.08-11.84 329.96-11.47 331.71-10.77 333.47-10.06 334.74-9.01 336.01-7.96 336.01-6.35L336.01-6.35Q336.01-4.54 334.59-3.32 333.18-2.1 331.2-1.37 329.22-0.63 327.07-0.32 324.93 0 323.51 0L323.51 0Q320.58 0 317.7-0.42 314.82-0.83 312.04-1.81L312.04-1.81Q311.69-1.95 310.91-2.27 310.13-2.59 309.28-2.95 308.42-3.32 307.69-3.61 306.96-3.91 306.76-3.91L306.76-3.91Q306.86-3.96 307.45-4.49 308.03-5.03 308.69-5.69 309.35-6.35 309.89-6.93 310.42-7.52 310.47-7.67L310.47-7.67Q312.96-5.81 316.02-4.93 319.07-4.05 322.14-4.05L322.14-4.05Q322.48-4.05 323.46-4.13 324.44-4.2 325.49-4.39 326.54-4.59 327.37-4.93 328.2-5.27 328.2-5.81L328.2-5.81Q328.2-6.59 326.83-7.08 325.46-7.57 323.39-8.01 321.31-8.45 318.92-8.98 316.53-9.52 314.45-10.38 312.38-11.23 311.01-12.5 309.64-13.77 309.64-15.77L309.64-15.77Q309.64-18.7 311.23-20.78 312.82-22.85 315.21-24.15 317.6-25.44 320.39-26.03 323.17-26.61 325.61-26.61L325.61-26.61Q327.61-26.61 329.47-26.29 331.32-25.98 332.74-25.15 334.15-24.32 335.01-22.85 335.86-21.39 335.86-19.04L335.86-19.04Q335.86-17.87 335.69-16.7 335.52-15.53 335.28-14.4L335.28-14.4 328.83-14.4ZM354.71-12.4L354.71-12.4Q357.35-10.11 360.01-7.89 362.67-5.66 365.35-3.42L365.35-3.42Q366.53-2.44 367.75-1.37 368.97-0.29 370.33 0.39L370.33 0.39 361.5 0.39Q361.35 0.15 360.57-0.56 359.79-1.27 358.69-2.15 357.59-3.03 356.32-4.05 355.05-5.08 353.88-6.01 352.71-6.93 351.75-7.64 350.8-8.35 350.36-8.69L350.36-8.69 348.61-7.18Q348.61-6.64 348.61-5.54 348.61-4.44 348.65-3.27 348.7-2.1 348.83-1.07 348.95-0.05 349.14 0.29L349.14 0.29 340.5 0.29Q340.7-0.05 340.89-1.27 341.09-2.49 341.23-4.3 341.38-6.1 341.5-8.33 341.62-10.55 341.74-12.89 341.87-15.23 341.94-17.55 342.01-19.87 342.09-21.85 342.16-23.83 342.18-25.34 342.21-26.86 342.21-27.59L342.21-27.59Q342.21-28.08 342.21-29.32 342.21-30.57 342.11-31.91 342.01-33.25 341.82-34.38 341.62-35.5 341.28-35.74L341.28-35.74 350.61-35.69Q350.22-35.45 349.92-33.98 349.63-32.52 349.41-30.4 349.19-28.27 349.04-25.76 348.9-23.24 348.83-20.95 348.75-18.65 348.7-16.85 348.65-15.04 348.65-14.36L348.65-14.36Q351.54-16.75 354.49-19.09 357.44-21.44 360.18-24.02L360.18-24.02 368.72-24.02Q367.45-23.34 366.35-22.31 365.26-21.29 364.13-20.41L364.13-20.41Q361.74-18.36 359.4-16.41 357.05-14.45 354.71-12.4ZM369.84-22.85L369.84-22.85 378.44-22.8Q378.19-22.75 378.07-22.39 377.95-22.02 377.85-21.83L377.85-21.83Q377.51-20.61 377.34-18.87 377.17-17.14 377.09-15.26 377.02-13.38 377-11.62 376.97-9.86 376.97-8.54L376.97-8.54Q376.97-8.11 376.97-6.76 376.97-5.42 377.05-3.91 377.12-2.39 377.26-1.15 377.41 0.1 377.7 0.39L377.7 0.39 369.06 0.39Q369.31 0.05 369.55-1.22 369.79-2.49 369.97-4.25 370.14-6.01 370.28-8.03 370.43-10.06 370.55-11.89 370.67-13.72 370.72-15.16 370.77-16.6 370.77-17.14L370.77-17.14Q370.77-17.43 370.77-18.31 370.77-19.19 370.67-20.14 370.58-21.09 370.38-21.9 370.18-22.71 369.84-22.85ZM374.09-34.67L374.09-34.67Q374.73-34.67 375.51-34.47 376.29-34.28 376.95-33.91 377.61-33.54 378.05-32.93 378.49-32.32 378.49-31.54L378.49-31.54Q378.49-30.76 378.05-30.18 377.61-29.59 376.95-29.22 376.29-28.86 375.51-28.66 374.73-28.47 374.09-28.47L374.09-28.47Q373.41-28.47 372.65-28.66 371.89-28.86 371.23-29.22 370.58-29.59 370.14-30.18 369.7-30.76 369.7-31.54L369.7-31.54Q369.7-32.32 370.14-32.93 370.58-33.54 371.23-33.91 371.89-34.28 372.65-34.47 373.41-34.67 374.09-34.67ZM411.98-15.04L411.98-15.04Q411.98-11.67 411.66-8.35 411.34-5.03 411.34-1.66L411.34-1.66Q411.34-0.54 411.49 0.54L411.49 0.54 402.95 0.54Q403.43-0.24 403.68-2.08 403.92-3.91 404.04-5.98 404.17-8.06 404.19-9.99 404.22-11.91 404.22-12.94L404.22-12.94Q404.22-15.92 402.75-17.6 401.29-19.29 398.21-19.29L398.21-19.29Q397.18-19.29 396.23-18.92 395.28-18.55 394.43-17.97 393.57-17.38 392.81-16.65 392.06-15.92 391.47-15.19L391.47-15.19Q391.32-10.94 391.32-6.69L391.32-6.69Q391.32-6.35 391.32-5.35 391.32-4.35 391.37-3.22 391.42-2.1 391.52-1.15 391.62-0.2 391.86 0L391.86 0 383.22 0Q383.41-0.29 383.61-1.44 383.81-2.59 383.95-4.17 384.1-5.76 384.2-7.57 384.29-9.38 384.37-11.04 384.44-12.7 384.46-13.96 384.49-15.23 384.49-15.72L384.49-15.72Q384.49-16.11 384.46-17.36 384.44-18.6 384.34-19.95 384.24-21.29 384.03-22.41 383.81-23.54 383.37-23.68L383.37-23.68 391.91-23.63 391.76-21.29Q393.57-22.61 395.79-23.46 398.01-24.32 400.31-24.32L400.31-24.32Q402.56-24.32 404.68-23.85 406.8-23.39 408.41-22.29 410.03-21.19 411-19.43 411.98-17.68 411.98-15.04ZM414.71 6.64Q415.2 4.69 415.64 2.76 416.08 0.83 416.52-1.17L416.52-1.17Q416.57-1.51 416.71-2.03 416.86-2.54 416.96-3.08 417.05-3.61 417.15-4.1 417.25-4.59 417.25-4.98L417.25-4.98 424.48-3.86Q424.23-3.66 423.79-2.83 423.35-2 422.77-0.9 422.18 0.2 421.57 1.49 420.96 2.78 420.42 3.93 419.89 5.08 419.47 5.93 419.06 6.79 418.96 7.08L418.96 7.08 414.71 6.64ZM445.91 0.44Q446.15 0.05 446.4-1.93 446.64-3.91 446.81-6.67 446.98-9.42 447.13-12.62 447.27-15.82 447.4-18.7 447.52-21.58 447.57-23.78 447.62-25.98 447.62-26.76L447.62-26.76Q447.62-27.2 447.62-28.54 447.62-29.88 447.54-31.4 447.47-32.91 447.27-34.16 447.08-35.4 446.69-35.64L446.69-35.64 456.01-35.55Q455.77-35.5 455.65-34.96 455.53-34.42 455.48-34.23L455.48-34.23Q454.94-31.79 454.79-29.27 454.65-26.76 454.5-24.27L454.5-24.27Q454.26-20.12 454.13-16.06 454.01-12.01 454.01-7.86L454.01-7.86Q454.01-7.47 454.01-6.23 454.01-4.98 454.06-3.61 454.11-2.25 454.21-1.05 454.31 0.15 454.55 0.44L454.55 0.44 445.91 0.44ZM476.03-23.54L476.03-23.54Q478.72-23.54 481.7-22.78 484.67-22.02 487.12-20.48 489.56-18.95 491.17-16.6 492.78-14.26 492.78-11.08L492.78-11.08Q492.78-8.98 492-7.3 491.22-5.62 489.92-4.32 488.63-3.03 486.92-2.08 485.21-1.12 483.33-0.51 481.45 0.1 479.5 0.39 477.55 0.68 475.84 0.68L475.84 0.68Q473.05 0.68 470.12 0.05 467.19-0.59 464.78-2 462.36-3.42 460.82-5.69 459.28-7.96 459.28-11.28L459.28-11.28Q459.28-14.55 460.87-16.87 462.46-19.19 464.9-20.68 467.34-22.17 470.29-22.85 473.25-23.54 476.03-23.54ZM466.61-11.33L466.61-11.33Q466.61-9.42 467.46-8.11 468.32-6.79 469.66-5.96 471-5.13 472.66-4.76 474.32-4.39 475.93-4.39L475.93-4.39Q477.45-4.39 479.11-4.79 480.77-5.18 482.18-6.01 483.6-6.84 484.53-8.13 485.46-9.42 485.46-11.23L485.46-11.23Q485.46-13.04 484.58-14.38 483.7-15.72 482.33-16.63 480.96-17.53 479.28-17.97 477.59-18.41 476.03-18.41L476.03-18.41Q474.42-18.41 472.76-17.99 471.1-17.58 469.73-16.72 468.37-15.87 467.49-14.53 466.61-13.18 466.61-11.33ZM522.22-23.83Q521.83-23.44 520.8-21.66 519.78-19.87 518.46-17.36 517.14-14.84 515.75-11.96 514.36-9.08 513.19-6.52 512.02-3.96 511.26-2.08 510.5-0.2 510.5 0.29L510.5 0.29 510.55 0.39 504.3 0.39 504.3 0.29Q504.25-0.24 503.5-2.1 502.74-3.96 501.57-6.47 500.39-8.98 498.98-11.84 497.56-14.7 496.27-17.19 494.97-19.68 493.95-21.51 492.92-23.34 492.53-23.83L492.53-23.83 500.79-23.83Q502.3-19.87 503.76-15.99 505.23-12.11 507.18-8.4L507.18-8.4 512.16-18.65Q512.75-19.92 513.38-21.19 514.02-22.46 514.36-23.83L514.36-23.83 522.22-23.83ZM537.26 0.73L537.26 0.73Q534.86 0.73 532.18 0.1 529.49-0.54 527.22-1.88 524.95-3.22 523.46-5.27 521.97-7.32 521.97-10.16L521.97-10.16Q521.97-13.62 523.34-16.36 524.71-19.09 527-20.97 529.3-22.85 532.33-23.85 535.35-24.85 538.67-24.85L538.67-24.85Q541.31-24.85 543.36-24 545.41-23.14 546.78-21.61 548.15-20.07 548.85-17.97 549.56-15.87 549.56-13.33L549.56-13.33Q549.56-10.89 548.83-8.64L548.83-8.64 528.47-8.64Q528.96-7.18 530.01-6.25 531.06-5.32 532.4-4.81 533.74-4.3 535.23-4.1 536.72-3.91 538.04-3.91L538.04-3.91Q538.87-3.91 540.26-4.03 541.65-4.15 543.12-4.42 544.58-4.69 545.88-5.08 547.17-5.47 547.8-6.05L547.8-6.05 550.2-1.86Q546.97-0.63 543.85 0.05 540.72 0.73 537.26 0.73ZM537.26-20.26L537.26-20.26Q535.79-20.26 534.35-19.68 532.91-19.09 531.74-18.14 530.57-17.19 529.69-15.89 528.81-14.6 528.42-13.23L528.42-13.23 542.38-13.23Q542.53-14.7 542.41-15.99 542.29-17.29 541.75-18.24 541.21-19.19 540.14-19.73 539.06-20.26 537.26-20.26ZM599.46-24.51Q599.26-24.22 599.17-23.14 599.07-22.07 599.02-20.83 598.97-19.58 598.97-18.43 598.97-17.29 598.97-16.85L598.97-16.85Q598.97-12.84 599.02-8.86 599.07-4.88 599.07-0.93L599.07-0.93Q599.07 2.1 597.73 4.37 596.38 6.64 594.23 8.13 592.09 9.62 589.4 10.35 586.72 11.08 584.03 11.08L584.03 11.08Q581.05 11.08 578.1 11.04 575.14 10.99 572.21 10.94L572.21 10.94 572.7 5.27Q573.43 5.57 574.78 5.83 576.12 6.1 577.58 6.27 579.05 6.45 580.42 6.54 581.78 6.64 582.66 6.64L582.66 6.64Q584.96 6.64 586.76 6.25 588.57 5.86 589.84 4.91 591.11 3.96 591.79 2.29 592.48 0.63 592.48-1.86L592.48-1.86Q592.48-2.29 592.45-2.76 592.43-3.22 592.38-3.66L592.38-3.66Q590.43-2.25 588.08-1.56 585.74-0.88 583.35-0.88L583.35-0.88Q579.83-0.88 577.51-1.98 575.19-3.08 573.82-5 572.46-6.93 571.9-9.59 571.33-12.26 571.33-15.38L571.33-15.38Q571.33-16.89 571.43-18.41 571.53-19.92 571.53-21.44L571.53-21.44Q571.53-22.12 571.46-22.92 571.38-23.73 570.94-24.27L570.94-24.27 579.83-24.22Q579.44-23.58 579.12-22.36 578.8-21.14 578.61-19.78 578.41-18.41 578.32-17.11 578.22-15.82 578.22-15.04L578.22-15.04Q578.22-13.09 578.49-11.43 578.76-9.77 579.54-8.52 580.32-7.28 581.66-6.57 583-5.86 585.15-5.86L585.15-5.86Q586.03-5.86 587.15-6.01 588.28-6.15 589.3-6.57 590.33-6.98 591.11-7.67 591.89-8.35 592.04-9.42L592.04-9.42Q592.18-10.3 592.18-11.21 592.18-12.11 592.18-12.94L592.18-12.94Q592.18-13.67 592.11-15.41 592.04-17.14 591.89-18.97 591.74-20.8 591.48-22.39 591.21-23.97 590.82-24.41L590.82-24.41 599.46-24.51ZM619.96-23.54L619.96-23.54Q622.65-23.54 625.63-22.78 628.61-22.02 631.05-20.48 633.49-18.95 635.1-16.6 636.71-14.26 636.71-11.08L636.71-11.08Q636.71-8.98 635.93-7.3 635.15-5.62 633.86-4.32 632.56-3.03 630.85-2.08 629.14-1.12 627.26-0.51 625.38 0.1 623.43 0.39 621.48 0.68 619.77 0.68L619.77 0.68Q616.99 0.68 614.06 0.05 611.13-0.59 608.71-2 606.29-3.42 604.75-5.69 603.22-7.96 603.22-11.28L603.22-11.28Q603.22-14.55 604.8-16.87 606.39-19.19 608.83-20.68 611.27-22.17 614.23-22.85 617.18-23.54 619.96-23.54ZM610.54-11.33L610.54-11.33Q610.54-9.42 611.4-8.11 612.25-6.79 613.59-5.96 614.94-5.13 616.6-4.76 618.26-4.39 619.87-4.39L619.87-4.39Q621.38-4.39 623.04-4.79 624.7-5.18 626.12-6.01 627.53-6.84 628.46-8.13 629.39-9.42 629.39-11.23L629.39-11.23Q629.39-13.04 628.51-14.38 627.63-15.72 626.26-16.63 624.9-17.53 623.21-17.97 621.53-18.41 619.96-18.41L619.96-18.41Q618.35-18.41 616.69-17.99 615.03-17.58 613.67-16.72 612.3-15.87 611.42-14.53 610.54-13.18 610.54-11.33ZM669.72-23.78Q669.52-23.44 669.35-22.31 669.18-21.19 669.03-19.65 668.89-18.12 668.79-16.31 668.69-14.5 668.62-12.87 668.55-11.23 668.52-9.94 668.5-8.64 668.5-8.06L668.5-8.06Q668.5-7.57 668.5-6.32 668.5-5.08 668.62-3.76 668.74-2.44 668.96-1.37 669.18-0.29 669.62-0.1L669.62-0.1 661.03-0.15 661.22-2.49Q659.37-1.17 657.17-0.32 654.97 0.54 652.68 0.54L652.68 0.54Q650.38 0.54 648.26-0.02 646.13-0.59 644.52-1.76 642.91-2.93 641.93-4.76 640.96-6.59 640.96-9.18L640.96-9.18Q640.96-12.45 641.28-15.67 641.59-18.9 641.59-22.17L641.59-22.17Q641.59-22.71 641.57-23.24 641.54-23.78 641.45-24.32L641.45-24.32 649.7-24.32Q649.21-23.49 648.97-21.68 648.72-19.87 648.6-17.82 648.48-15.77 648.45-13.84 648.43-11.91 648.43-10.84L648.43-10.84Q648.43-8.98 648.72-7.76 649.01-6.54 649.72-5.81 650.43-5.08 651.65-4.79 652.87-4.49 654.73-4.49L654.73-4.49Q655.75-4.49 656.71-4.86 657.66-5.22 658.54-5.81 659.42-6.4 660.15-7.13 660.88-7.86 661.47-8.59L661.47-8.59Q661.56-10.74 661.61-12.84 661.66-14.94 661.66-17.09L661.66-17.09Q661.66-17.53 661.66-18.53 661.66-19.53 661.61-20.61 661.56-21.68 661.44-22.58 661.32-23.49 661.12-23.78L661.12-23.78 669.72-23.78ZM681.43-18.55L681.43-18.55Q682.61-19.53 684.14-20.41 685.68-21.29 687.37-21.95 689.05-22.61 690.78-23 692.52-23.39 694.03-23.39L694.03-23.39 694.03-19.19Q692.47-19.19 690.56-18.51 688.66-17.82 686.83-16.75 685-15.67 683.53-14.31 682.07-12.94 681.39-11.52L681.39-11.52Q681.39-11.18 681.41-10.25 681.43-9.33 681.46-8.11 681.48-6.88 681.53-5.54 681.58-4.2 681.68-3.03 681.78-1.86 681.87-1.03 681.97-0.2 682.12 0L682.12 0 674.21 0Q674.4-0.1 674.55-1.05 674.7-2 674.77-3.37 674.84-4.74 674.92-6.32 674.99-7.91 675.01-9.38 675.04-10.84 675.04-11.91 675.04-12.99 675.04-13.33L675.04-13.33Q675.04-13.77 675.04-15.19 675.04-16.6 674.99-18.16 674.94-19.73 674.84-21.07 674.74-22.41 674.55-22.71L674.55-22.71 681.78-22.71Q681.68-22.41 681.63-21.85 681.58-21.29 681.53-20.65 681.48-20.02 681.46-19.43 681.43-18.85 681.43-18.55ZM732.85-14.4Q733.14-15.23 733.33-16.14 733.53-17.04 733.53-17.97L733.53-17.97Q733.53-20.02 732.43-21.02 731.33-22.02 729.28-22.02L729.28-22.02Q728.11-22.02 726.52-21.75 724.93-21.48 723.52-20.85 722.1-20.21 721.1-19.19 720.1-18.16 720.1-16.65L720.1-16.65Q720.1-15.53 721.2-14.77 722.3-14.01 723.76-13.55 725.23-13.09 726.72-12.84 728.21-12.6 728.99-12.45L728.99-12.45Q730.21-12.21 732.09-11.84 733.97-11.47 735.73-10.77 737.48-10.06 738.75-9.01 740.02-7.96 740.02-6.35L740.02-6.35Q740.02-4.54 738.61-3.32 737.19-2.1 735.21-1.37 733.24-0.63 731.09-0.32 728.94 0 727.52 0L727.52 0Q724.59 0 721.71-0.42 718.83-0.83 716.05-1.81L716.05-1.81Q715.71-1.95 714.93-2.27 714.14-2.59 713.29-2.95 712.43-3.32 711.7-3.61 710.97-3.91 710.77-3.91L710.77-3.91Q710.87-3.96 711.46-4.49 712.04-5.03 712.7-5.69 713.36-6.35 713.9-6.93 714.44-7.52 714.49-7.67L714.49-7.67Q716.98-5.81 720.03-4.93 723.08-4.05 726.16-4.05L726.16-4.05Q726.5-4.05 727.47-4.13 728.45-4.2 729.5-4.39 730.55-4.59 731.38-4.93 732.21-5.27 732.21-5.81L732.21-5.81Q732.21-6.59 730.84-7.08 729.48-7.57 727.4-8.01 725.33-8.45 722.93-8.98 720.54-9.52 718.47-10.38 716.39-11.23 715.02-12.5 713.66-13.77 713.66-15.77L713.66-15.77Q713.66-18.7 715.24-20.78 716.83-22.85 719.22-24.15 721.61-25.44 724.4-26.03 727.18-26.61 729.62-26.61L729.62-26.61Q731.62-26.61 733.48-26.29 735.34-25.98 736.75-25.15 738.17-24.32 739.02-22.85 739.88-21.39 739.88-19.04L739.88-19.04Q739.88-17.87 739.71-16.7 739.53-15.53 739.29-14.4L739.29-14.4 732.85-14.4ZM758.72-12.4L758.72-12.4Q761.36-10.11 764.02-7.89 766.68-5.66 769.37-3.42L769.37-3.42Q770.54-2.44 771.76-1.37 772.98-0.29 774.35 0.39L774.35 0.39 765.51 0.39Q765.36 0.15 764.58-0.56 763.8-1.27 762.7-2.15 761.6-3.03 760.33-4.05 759.06-5.08 757.89-6.01 756.72-6.93 755.77-7.64 754.82-8.35 754.38-8.69L754.38-8.69 752.62-7.18Q752.62-6.64 752.62-5.54 752.62-4.44 752.67-3.27 752.72-2.1 752.84-1.07 752.96-0.05 753.16 0.29L753.16 0.29 744.51 0.29Q744.71-0.05 744.9-1.27 745.1-2.49 745.24-4.3 745.39-6.1 745.51-8.33 745.64-10.55 745.76-12.89 745.88-15.23 745.95-17.55 746.03-19.87 746.1-21.85 746.17-23.83 746.2-25.34 746.22-26.86 746.22-27.59L746.22-27.59Q746.22-28.08 746.22-29.32 746.22-30.57 746.12-31.91 746.03-33.25 745.83-34.38 745.64-35.5 745.29-35.74L745.29-35.74 754.62-35.69Q754.23-35.45 753.94-33.98 753.64-32.52 753.42-30.4 753.2-28.27 753.06-25.76 752.91-23.24 752.84-20.95 752.76-18.65 752.72-16.85 752.67-15.04 752.67-14.36L752.67-14.36Q755.55-16.75 758.5-19.09 761.46-21.44 764.19-24.02L764.19-24.02 772.74-24.02Q771.47-23.34 770.37-22.31 769.27-21.29 768.15-20.41L768.15-20.41Q765.75-18.36 763.41-16.41 761.07-14.45 758.72-12.4ZM773.86-22.85L773.86-22.85 782.45-22.8Q782.21-22.75 782.08-22.39 781.96-22.02 781.86-21.83L781.86-21.83Q781.52-20.61 781.35-18.87 781.18-17.14 781.11-15.26 781.03-13.38 781.01-11.62 780.98-9.86 780.98-8.54L780.98-8.54Q780.98-8.11 780.98-6.76 780.98-5.42 781.06-3.91 781.13-2.39 781.28-1.15 781.42 0.1 781.72 0.39L781.72 0.39 773.07 0.39Q773.32 0.05 773.56-1.22 773.81-2.49 773.98-4.25 774.15-6.01 774.3-8.03 774.44-10.06 774.56-11.89 774.69-13.72 774.73-15.16 774.78-16.6 774.78-17.14L774.78-17.14Q774.78-17.43 774.78-18.31 774.78-19.19 774.69-20.14 774.59-21.09 774.39-21.9 774.2-22.71 773.86-22.85ZM778.1-34.67L778.1-34.67Q778.74-34.67 779.52-34.47 780.3-34.28 780.96-33.91 781.62-33.54 782.06-32.93 782.5-32.32 782.5-31.54L782.5-31.54Q782.5-30.76 782.06-30.18 781.62-29.59 780.96-29.22 780.3-28.86 779.52-28.66 778.74-28.47 778.1-28.47L778.1-28.47Q777.42-28.47 776.66-28.66 775.91-28.86 775.25-29.22 774.59-29.59 774.15-30.18 773.71-30.76 773.71-31.54L773.71-31.54Q773.71-32.32 774.15-32.93 774.59-33.54 775.25-33.91 775.91-34.28 776.66-34.47 777.42-34.67 778.1-34.67ZM815.99-15.04L815.99-15.04Q815.99-11.67 815.67-8.35 815.36-5.03 815.36-1.66L815.36-1.66Q815.36-0.54 815.5 0.54L815.5 0.54 806.96 0.54Q807.45-0.24 807.69-2.08 807.94-3.91 808.06-5.98 808.18-8.06 808.2-9.99 808.23-11.91 808.23-12.94L808.23-12.94Q808.23-15.92 806.76-17.6 805.3-19.29 802.22-19.29L802.22-19.29Q801.2-19.29 800.24-18.92 799.29-18.55 798.44-17.97 797.58-17.38 796.83-16.65 796.07-15.92 795.48-15.19L795.48-15.19Q795.34-10.94 795.34-6.69L795.34-6.69Q795.34-6.35 795.34-5.35 795.34-4.35 795.39-3.22 795.44-2.1 795.53-1.15 795.63-0.2 795.87 0L795.87 0 787.23 0Q787.43-0.29 787.62-1.44 787.82-2.59 787.96-4.17 788.11-5.76 788.21-7.57 788.31-9.38 788.38-11.04 788.45-12.7 788.48-13.96 788.5-15.23 788.5-15.72L788.5-15.72Q788.5-16.11 788.48-17.36 788.45-18.6 788.36-19.95 788.26-21.29 788.04-22.41 787.82-23.54 787.38-23.68L787.38-23.68 795.92-23.63 795.78-21.29Q797.58-22.61 799.81-23.46 802.03-24.32 804.32-24.32L804.32-24.32Q806.57-24.32 808.69-23.85 810.82-23.39 812.43-22.29 814.04-21.19 815.02-19.43 815.99-17.68 815.99-15.04Z" opacity="1" transform="matrix(1,0,0,1,0,0)" fill="#000000" class="slogan-text-1" data-fill-palette-color="secondary" id="text-1"></path></svg></g></svg></g></svg></g></svg></g><g transform="matrix(1,0,0,1,0,0.20060826161720513)"><svg viewBox="0 0 110.61526693241021 80.24330464688312" height="80.24330464688312" width="110.61526693241021"><g><svg xmlns="http://www.w3.org/2000/svg" viewBox="0 0.039999999999999994 62 44.97647590677247" x="0" y="0" width="110.61526693241021" height="80.24330464688312" class="icon-icon-0" data-fill-palette-color="accent" id="icon-0"><g data-name="Layer 2" fill="#4d331f" data-fill-palette-color="accent"><g data-name="Layer 1" fill="#4d331f" data-fill-palette-color="accent"><path d="M26.73 30.79a6 6 0 1 0 8.55 0h0A7 7 0 0 1 33.5 26.1L32 0.94A1 1 0 0 0 32 0.8a1 1 0 0 0-0.05-0.19 1 1 0 0 0-0.1-0.17A1 1 0 0 0 31.7 0.3a1 1 0 0 0-0.16-0.12L31.39 0.09a1 1 0 0 0-0.2-0.05l-0.13 0h-0.12l-0.13 0a1 1 0 0 0-0.2 0.05l-0.16 0.09A1 1 0 0 0 30.3 0.3a1 1 0 0 0-0.12 0.15 1 1 0 0 0-0.1 0.16 1 1 0 0 0-0.05 0.2 0.93 0.93 0 0 0 0 0.13L28.5 26.16a6.93 6.93 0 0 1-1.77 4.63Zm3.77-4.58l0.5-8.43 0.5 8.37a8.92 8.92 0 0 0 2.29 6l0 0 0 0a4 4 0 1 1-5.66 0l0 0 0 0A8.87 8.87 0 0 0 30.5 26.21Z" fill="#000000" data-fill-palette-color="accent"></path><path d="M58.66 25a5.8 5.8 0 0 0-4.5 2.31c-0.89 0.94-1.59 1.69-3 1.69s-2.16-0.74-3.05-1.69a5.54 5.54 0 0 0-9 0c-0.27 0.29-0.54 0.56-0.81 0.8L38 27.86h0A4.06 4.06 0 0 1 40.94 21H61a1 1 0 0 0 0-2H40.94a6.06 6.06 0 0 0-4.39 10.23h0v0a8 8 0 1 1-11.15 0v0h0A6.06 6.06 0 0 0 21.06 19H1a1 1 0 0 0 0 2H21.06A4.06 4.06 0 0 1 24 27.85h0l-0.24 0.26c-0.27-0.24-0.54-0.52-0.81-0.8A5.8 5.8 0 0 0 18.45 25a5.8 5.8 0 0 0-4.5 2.31c-0.89 0.94-1.59 1.69-3 1.69s-2.16-0.74-3.05-1.69A5.8 5.8 0 0 0 3.35 25a5 5 0 0 0-2.78 0.78 1 1 0 1 0 1.07 1.69A3 3 0 0 1 3.35 27c1.46 0 2.16 0.74 3 1.69A5.81 5.81 0 0 0 10.9 31a5.8 5.8 0 0 0 4.5-2.31c0.89-0.94 1.59-1.69 3-1.69s2.16 0.74 3 1.69a13.6 13.6 0 0 0 1 1A9.91 9.91 0 0 0 21 35a10 10 0 1 0 18.47-5.3 13.65 13.65 0 0 0 1-1c0.89-0.94 1.59-1.69 3-1.69s2.16 0.74 3 1.69a5.54 5.54 0 0 0 9 0c0.89-0.94 1.59-1.69 3-1.69a3 3 0 0 1 1.78 0.52 1 1 0 0 0 1.12-1.66A5 5 0 0 0 58.66 25Z" fill="#000000" data-fill-palette-color="accent"></path><circle cx="10" cy="40" r="1.0" fill="#000000" data-fill-palette-color="accent"></circle><circle cx="14" cy="34" r="1.0" fill="#000000" data-fill-palette-color="accent"></circle><circle cx="18" cy="40" r="1.0" fill="#000000" data-fill-palette-color="accent"></circle><circle cx="52" cy="34" r="1.0" fill="#000000" data-fill-palette-color="accent"></circle><circle cx="48" cy="40" r="1.0" fill="#000000" data-fill-palette-color="accent"></circle><circle cx="44" cy="34" r="1.0" fill="#000000" data-fill-palette-color="accent"></circle></g></g></svg></g></svg></g></svg></g><defs></defs></svg><rect width="395.52" height="59.449679937478926" fill="none" stroke="none" visibility="hidden"></rect></g></svg></g></svg>